<?xml version="1.0" standalone="no"?>
<!DOCTYPE svg PUBLIC "-//W3C//DTD SVG 20010904//EN"
 "http://www.w3.org/TR/2001/REC-SVG-20010904/DTD/svg10.dtd">
<svg version="1.0" xmlns="http://www.w3.org/2000/svg"
 width="120.000000pt" height="120.000000pt" viewBox="0 0 120.000000 120.000000"
 preserveAspectRatio="xMidYMid meet">
<metadata>
Created by potrace 1.14, written by Peter Selinger 2001-2017
</metadata>
<g transform="translate(0.000000,120.000000) scale(0.100000,-0.100000)"
fill="#000000" stroke="none">
<path d="M499 1189 c-87 -13 -200 -49 -284 -90 -47 -23 -85 -46 -85 -51 0 -5
13 -34 28 -66 l29 -57 -3 -330 c-2 -356 -4 -347 52 -398 14 -13 54 -38 87 -55
34 -16 108 -53 165 -82 98 -49 105 -51 140 -39 20 6 42 15 47 19 6 4 37 17 70
30 170 65 275 146 275 212 0 18 1 175 1 348 1 311 1 315 25 362 22 44 24 78 3
78 -5 0 -26 10 -47 23 -52 33 -156 72 -227 87 -70 15 -210 19 -276 9z"/>
</g>
</svg>
